<svg xmlns="http://www.w3.org/2000/svg" xmlns:xlink="http://www.w3.org/1999/xlink" viewBox="0 0 30 30" fill="#0C9488">
  <path d="M6 4C5.448 4 5 4.448 5 5L5 21C5 21.552 5.448 22 6 22L10 22C10.552 22 11 21.552 11 21L11 5C11 4.448 10.552 4 10 4L6 4 z M 14 4C13.448 4 13 4.448 13 5L13 21C13 21.552 13.448 22 14 22L18 22C18.552 22 19 21.552 19 21L19 5C19 4.448 18.552 4 18 4L14 4 z M 6.5 7L9.5 7C9.776 7 10 7.224 10 7.5C10 7.776 9.776 8 9.5 8L6.5 8C6.224 8 6 7.776 6 7.5C6 7.224 6.224 7 6.5 7 z M 14.5 7L17.5 7C17.776 7 18 7.224 18 7.5C18 7.776 17.776 8 17.5 8L14.5 8C14.224 8 14 7.776 14 7.5C14 7.224 14.224 7 14.5 7 z M 22 7C21.448 7 21 7.448 21 8L21 21C21 21.552 21.448 22 22 22L24 22C24.552 22 25 21.552 25 21L25 8C25 7.448 24.552 7 24 7L22 7 z M 22.5 10L23.5 10C23.776 10 24 10.224 24 10.5C24 10.776 23.776 11 23.5 11L22.5 11C22.224 11 22 10.776 22 10.5C22 10.224 22.224 10 22.5 10 z M 6.5 16L9.5 16C9.776 16 10 16.224 10 16.5C10 16.776 9.776 17 9.5 17L6.5 17C6.224 17 6 16.776 6 16.5C6 16.224 6.224 16 6.5 16 z M 14.5 16L17.5 16C17.776 16 18 16.224 18 16.5C18 16.776 17.776 17 17.5 17L14.5 17C14.224 17 14 16.776 14 16.5C14 16.224 14.224 16 14.5 16 z M 22.5 16L23.5 16C23.776 16 24 16.224 24 16.5C24 16.776 23.776 17 23.5 17L22.5 17C22.224 17 22 16.776 22 16.5C22 16.224 22.224 16 22.5 16 z M 6.5 18L9.5 18C9.776 18 10 18.224 10 18.5C10 18.776 9.776 19 9.5 19L6.5 19C6.224 19 6 18.776 6 18.5C6 18.224 6.224 18 6.5 18 z M 14.5 18L17.5 18C17.776 18 18 18.224 18 18.5C18 18.776 17.776 19 17.5 19L14.5 19C14.224 19 14 18.776 14 18.5C14 18.224 14.224 18 14.5 18 z M 22.5 18L23.5 18C23.776 18 24 18.224 24 18.5C24 18.776 23.776 19 23.5 19L22.5 19C22.224 19 22 18.776 22 18.5C22 18.224 22.224 18 22.5 18 z M 7.984375 23.986328 A 1.0001 1.0001 0 0 0 7.8398438 24L4 24 A 1.0001 1.0001 0 1 0 4 26L7 26L7 27 A 1.0001 1.0001 0 1 0 9 27L9 26L21 26L21 27 A 1.0001 1.0001 0 1 0 23 27L23 26L26 26 A 1.0001 1.0001 0 1 0 26 24L22.154297 24 A 1.0001 1.0001 0 0 0 21.984375 23.986328 A 1.0001 1.0001 0 0 0 21.839844 24L8.1542969 24 A 1.0001 1.0001 0 0 0 7.984375 23.986328 z" fill="#0C9488" />
</svg>